<?xml version="1.0" standalone="no"?>
<!DOCTYPE svg PUBLIC "-//W3C//DTD SVG 20010904//EN"
 "http://www.w3.org/TR/2001/REC-SVG-20010904/DTD/svg10.dtd">
<svg version="1.0" xmlns="http://www.w3.org/2000/svg"
 width="360.000000pt" height="360.000000pt" viewBox="0 0 360.000000 360.000000"
 preserveAspectRatio="xMidYMid meet">
<metadata>
Created by potrace 1.11, written by Peter Selinger 2001-2013
</metadata>
<g transform="translate(0.000000,360.000000) scale(0.100000,-0.100000)"
fill="#000000" stroke="none">
<path d="M1728 3345 c-2 -3 -59 -6 -126 -7 -108 -1 -125 -4 -144 -22 -13 -12
-27 -21 -33 -21 -25 -1 -98 -52 -116 -82 -11 -18 -24 -33 -28 -33 -11 0 -61
-44 -61 -53 0 -6 -34 -48 -68 -83 -6 -7 -12 -15 -12 -19 0 -3 -9 -16 -21 -28
-11 -12 -27 -37 -34 -54 -8 -18 -18 -33 -24 -33 -27 0 -104 -215 -121 -340 -5
-41 -13 -86 -16 -100 -4 -14 -8 -99 -10 -189 -3 -128 -8 -168 -19 -181 -26
-29 -12 -139 28 -216 9 -17 19 -55 22 -85 4 -30 13 -75 21 -100 8 -25 12 -52
9 -61 -9 -22 29 -50 62 -46 27 3 29 0 54 -72 27 -81 61 -139 120 -210 36 -42
39 -52 49 -140 6 -52 8 -115 5 -140 -6 -40 -11 -47 -45 -63 -93 -43 -111 -95
-66 -185 52 -103 238 -234 378 -267 84 -20 94 -19 103 8 6 18 8 19 12 5 3 -12
18 -18 51 -21 l47 -3 -55 -4 -55 -3 50 -7 c53 -9 233 -11 203 -3 -25 6 -22 32
5 43 18 7 18 9 4 9 -10 1 -15 5 -12 11 3 5 1 10 -5 10 -6 0 -9 4 -6 9 3 5 -1
12 -10 15 -22 9 -26 8 -18 -6 4 -7 3 -8 -5 -4 -6 4 -9 11 -7 15 3 4 -11 15
-31 25 -19 9 -33 20 -29 23 3 3 12 1 19 -6 12 -9 13 -6 9 15 -4 25 -3 26 27
19 27 -6 31 -4 31 15 0 12 4 19 9 16 8 -5 34 5 70 28 10 6 10 10 1 16 -9 5 -9
9 -1 14 6 4 11 2 11 -3 0 -6 7 -11 16 -11 9 0 12 5 8 12 -5 8 0 9 14 6 12 -4
25 -2 28 3 3 5 1 9 -4 9 -16 0 -24 32 -11 44 9 8 10 6 5 -8 -5 -16 -4 -17 8
-7 8 7 16 22 18 34 2 12 12 23 23 26 17 3 18 1 6 -13 -21 -25 0 -19 34 9 l30
25 -27 -6 c-18 -4 -28 -2 -28 5 0 6 11 11 25 11 15 0 29 8 36 22 12 22 12 22
20 3 7 -19 8 -19 10 3 4 53 -1 49 57 39 27 -6 32 -4 32 13 0 10 5 22 10 25 6
4 10 -6 10 -24 0 -16 5 -42 12 -58 15 -38 26 -94 27 -151 1 -15 5 -21 13 -16
8 5 9 2 5 -10 -6 -14 -3 -17 9 -12 12 5 15 2 10 -10 -6 -15 -4 -15 11 -3 14
12 15 12 7 -2 -16 -27 -78 -76 -92 -72 -7 3 -11 -1 -10 -9 2 -7 -5 -12 -14
-12 -10 1 -15 -3 -11 -9 4 -6 0 -8 -11 -4 -11 5 -15 3 -10 -5 5 -8 2 -9 -10
-5 -9 4 -15 3 -12 -2 3 -5 -2 -12 -12 -15 -9 -4 -33 -15 -52 -26 -61 -33 -10
-21 68 16 56 27 96 57 158 118 94 92 124 146 124 221 0 62 -16 93 -58 117 -37
20 -52 17 -52 -13 0 -11 -5 -29 -10 -40 -7 -13 -7 -19 0 -19 11 0 13 -30 4
-54 -8 -20 -24 -21 -24 -1 0 18 -16 20 -24 3 -4 -7 -4 7 -2 32 3 25 1 62 -3
83 -8 31 -6 37 8 38 10 0 11 2 4 6 -10 4 -10 9 2 25 12 17 12 26 1 52 -25 63
-6 172 59 336 19 47 40 115 47 153 10 55 16 67 32 67 15 0 16 3 6 15 -9 11
-11 33 -6 72 5 46 12 61 36 81 16 13 26 30 23 38 -3 8 0 14 7 14 6 0 8 5 4 12
-5 7 -9 19 -9 28 -3 30 -17 85 -25 95 -10 13 0 76 11 69 5 -3 9 0 9 7 0 8 4 8
15 -1 8 -7 15 -22 15 -34 0 -12 4 -26 9 -31 5 -6 11 -19 13 -30 4 -19 4 -19
16 2 7 12 15 49 18 82 7 59 6 61 -27 94 -32 32 -34 39 -34 98 0 83 -10 160
-28 229 -9 30 -16 73 -18 95 -1 22 -7 45 -12 52 -5 7 -6 17 -2 23 4 6 1 17 -5
25 -6 8 -9 19 -6 24 4 5 2 12 -4 16 -6 3 -17 22 -25 41 -8 19 -19 34 -24 34
-6 0 -11 8 -11 19 0 10 -11 26 -24 34 -12 9 -31 33 -41 54 -9 21 -28 49 -40
63 -13 14 -26 36 -30 50 -9 28 -113 129 -134 130 -8 0 -38 16 -68 36 -111 74
-206 115 -275 120 -36 2 -67 2 -70 -1z m164 -385 c11 0 16 -4 13 -10 -4 -6 7
-8 27 -5 26 4 29 3 13 -4 l-20 -10 20 -2 c11 -1 28 -2 37 -1 11 1 15 -3 12
-13 -4 -8 -1 -15 5 -15 6 0 11 9 11 21 0 11 5 17 10 14 6 -3 10 -16 10 -28 0
-15 3 -18 11 -10 8 8 20 2 45 -24 19 -19 34 -39 34 -43 0 -5 8 -14 18 -19 16
-10 15 -10 -3 -11 -18 0 -18 -2 5 -19 20 -16 22 -22 12 -34 -10 -12 -9 -16 4
-21 9 -4 14 -9 11 -13 -4 -3 1 -12 11 -19 16 -13 16 -13 0 -14 -21 0 -22 -4
-8 -30 8 -15 6 -17 -11 -13 -16 5 -20 2 -17 -13 2 -10 14 -21 28 -25 23 -6 22
-7 -7 -8 -18 -1 -33 4 -33 9 0 6 -7 10 -17 10 -14 0 -14 -2 2 -20 10 -11 16
-23 12 -26 -7 -7 -77 17 -77 27 0 3 -12 6 -27 7 -16 0 -43 4 -60 7 -21 5 -33
3 -33 -3 0 -10 -57 -28 -74 -23 -13 3 -58 -21 -73 -39 -6 -8 -9 -25 -6 -37 3
-13 1 -23 -4 -23 -10 0 -11 -14 -12 -120 -1 -41 5 -101 13 -133 7 -31 12 -82
10 -112 -4 -49 -2 -55 24 -73 15 -11 34 -32 42 -46 10 -19 16 -23 22 -14 12
20 43 -4 43 -32 0 -16 -6 -24 -20 -25 -27 -3 -49 -9 -55 -15 -3 -3 -18 -14
-33 -24 -54 -34 -179 3 -192 57 -4 15 1 39 14 63 25 46 27 90 5 133 -12 24
-14 44 -8 79 15 93 -6 185 -52 231 -19 19 -34 43 -34 54 0 13 -5 17 -16 13 -8
-3 -12 -2 -9 4 3 5 1 18 -4 28 -9 17 -21 19 -102 17 -51 -2 -86 1 -78 6 22 13
4 20 -25 9 -34 -13 -49 -13 -41 0 3 6 -2 10 -11 10 -15 0 -15 2 2 18 12 10 19
29 18 47 -1 39 16 77 32 71 15 -6 6 25 -10 36 -7 5 -6 8 3 8 11 0 11 3 1 15
-11 13 -10 14 4 9 12 -5 16 0 16 20 0 14 4 26 10 26 5 0 7 7 4 15 -4 8 -1 15
6 15 6 0 8 5 4 12 -5 7 -2 9 9 5 9 -3 18 1 21 10 4 9 9 13 13 10 3 -4 12 -2
20 5 7 6 16 8 20 5 3 -4 18 2 33 13 15 11 30 17 34 13 3 -3 17 0 30 7 15 7 39
10 60 7 22 -3 36 -2 36 5 0 5 7 8 15 4 8 -3 15 -1 15 3 0 5 33 10 73 10 39 1
80 2 90 2 9 0 17 5 17 10 0 5 10 1 22 -11 12 -11 30 -20 40 -20z m-734 -80
c-7 -10 -14 -17 -17 -15 -4 4 18 35 25 35 2 0 -1 -9 -8 -20z m147 -49 c3 -5 1
-12 -5 -16 -5 -3 -10 1 -10 9 0 18 6 21 15 7z m930 -261 c3 -5 2 -10 -4 -10
-5 0 -13 5 -16 10 -3 6 -2 10 4 10 5 0 13 -4 16 -10z m45 -73 c0 -5 -7 -2 -15
7 -8 8 -15 20 -15 27 0 14 29 -20 30 -34z m16 -26 c-4 -5 -1 -12 4 -14 6 -3 5
-4 -2 -3 -15 3 -23 26 -8 26 6 0 9 -4 6 -9z m-240 -64 c4 -4 1 -7 -7 -8 -8 0
-6 -4 6 -9 17 -7 16 -9 -10 -9 -23 -1 -31 4 -32 17 -1 18 28 24 43 9z m-658
-54 c-10 -2 -26 -2 -35 0 -10 3 -2 5 17 5 19 0 27 -2 18 -5z m935 -104 c-8 -8
-13 -7 -18 2 -5 8 -4 10 3 5 7 -4 12 -2 12 5 0 7 3 9 7 6 4 -4 2 -12 -4 -18z
m-213 -35 c0 -2 -12 -4 -26 -4 -14 0 -23 4 -20 9 6 8 46 4 46 -5z m209 -9 c2
-11 10 -24 17 -28 8 -5 12 -13 8 -18 -4 -6 -12 -5 -22 3 -14 10 -15 10 -4 -2
6 -8 12 -25 12 -39 0 -19 3 -22 9 -12 6 9 8 -12 7 -55 -2 -40 3 -82 11 -101 7
-17 9 -33 4 -35 -6 -2 -6 -22 -1 -48 6 -34 5 -47 -5 -53 -8 -4 -12 -14 -9 -22
6 -15 -11 -22 -19 -7 -2 4 -2 1 0 -7 2 -7 -2 -20 -8 -27 -9 -11 -8 -14 1 -14
8 0 10 -3 7 -6 -8 -9 -38 16 -32 26 6 10 -38 22 -45 11 -8 -12 -74 -8 -89 7
-12 11 -15 11 -22 0 -5 -8 -9 -9 -9 -2 0 7 -17 29 -38 51 -21 22 -53 60 -69
84 -50 71 -116 115 -160 106 -19 -3 -27 1 -34 21 -7 17 -6 27 1 32 6 4 10 11
9 16 -4 23 4 40 26 56 24 18 24 18 19 -10 -5 -26 -4 -26 10 -7 8 11 12 24 9
29 -4 5 -1 6 5 2 6 -3 54 -7 107 -8 70 -1 99 2 105 12 4 7 15 10 24 7 9 -4 16
-2 16 4 0 6 8 9 18 8 51 -5 73 2 84 26 14 31 51 31 57 0z m225 -22 c-17 -17
-18 -17 -11 0 4 10 7 24 7 30 0 8 3 8 11 0 9 -9 7 -16 -7 -30z m-1094 -62 c0
-5 -6 -12 -12 -14 -8 -3 -6 -6 5 -6 9 -1 17 -6 17 -12 0 -5 -5 -7 -12 -3 -7 4
-8 3 -4 -4 4 -6 13 -9 21 -5 14 5 19 -6 16 -33 -1 -7 5 -14 14 -18 21 -8 19
-27 -2 -20 -17 5 -17 5 0 -6 17 -11 16 -14 -11 -44 -16 -19 -49 -65 -73 -104
-24 -39 -54 -77 -66 -83 -12 -7 -20 -16 -17 -21 8 -12 -3 -10 -37 8 -17 8 -37
13 -45 10 -8 -3 -14 -2 -14 2 0 5 -16 14 -35 22 -19 8 -35 20 -35 27 0 7 -6
13 -14 13 -14 0 -27 29 -30 68 -1 12 4 22 11 22 7 0 10 7 7 15 -4 8 -1 21 5
29 6 7 10 22 9 32 -1 11 2 36 6 57 8 35 10 37 50 38 22 0 50 2 61 4 82 15 99
15 106 3 6 -10 11 -9 21 3 19 24 58 37 58 20z m967 -123 c-3 -8 -6 -5 -6 6 -1
11 2 17 5 13 3 -3 4 -12 1 -19z m70 -61 c-6 -19 -22 -6 -25 20 -2 27 -2 27 13
8 8 -10 14 -23 12 -28z m-537 -81 c0 -11 -19 -15 -25 -6 -3 5 1 10 9 10 9 0
16 -2 16 -4z m-130 -208 c0 17 28 14 38 -4 8 -14 10 -14 21 0 16 19 40 21 42
4 3 -25 0 -61 -6 -66 -3 -4 -14 -1 -25 6 -13 8 -20 8 -22 0 -2 -5 -22 -12 -43
-14 -60 -5 -108 -12 -137 -19 -14 -4 -28 -2 -32 3 -3 5 -16 7 -29 5 -19 -4
-25 0 -29 19 -6 34 1 58 18 58 8 0 14 -4 14 -10 0 -5 5 -10 10 -10 6 0 10 7
10 16 0 12 9 15 38 13 20 -1 44 1 52 4 37 14 46 13 63 -1 11 -10 17 -11 17 -4z
m-829 -25 c13 -16 12 -17 -3 -4 -17 13 -22 21 -14 21 2 0 10 -8 17 -17z m1150
-46 c-11 -26 -23 -47 -26 -47 -3 0 -1 9 5 20 6 11 8 25 5 30 -3 5 2 21 12 34
25 34 27 17 4 -37z m-557 27 c8 -20 -12 -56 -27 -51 -7 2 -13 18 -15 35 -3 26
0 32 16 32 11 0 23 -7 26 -16z m436 -28 c0 -10 -43 -77 -47 -73 -6 6 30 76 40
77 4 0 7 -2 7 -4z m-230 -36 c0 -5 -21 -9 -47 -9 -47 2 -47 2 -13 9 52 11 60
11 60 0z m43 3 c-7 -2 -19 -2 -25 0 -7 3 -2 5 12 5 14 0 19 -2 13 -5z m214
-30 c-3 -18 0 -31 11 -39 22 -16 26 -108 5 -100 -11 4 -13 1 -8 -14 4 -11 2
-20 -4 -20 -6 0 -11 4 -11 8 0 5 -7 9 -15 9 -8 0 -15 -4 -15 -9 0 -4 7 -8 15
-8 20 0 19 -17 -2 -29 -11 -6 -13 -11 -5 -11 7 0 10 -5 7 -11 -4 -6 -13 -8
-21 -5 -8 3 -14 1 -14 -5 0 -6 -7 -9 -15 -5 -8 3 -15 0 -15 -6 0 -7 -4 -7 -14
1 -12 10 -10 21 15 68 16 30 29 62 29 70 0 8 4 12 9 8 5 -3 12 -1 16 5 3 5 0
10 -8 10 -18 0 -33 33 -18 38 6 2 9 8 5 13 -3 5 0 9 6 9 6 0 9 4 6 9 -3 5 1
12 10 15 8 3 12 10 9 16 -3 5 1 10 11 10 12 0 15 -6 11 -27z m-681 -1 c-3 -3
-1 -11 6 -19 8 -11 7 -12 -6 -7 -9 3 -16 15 -16 26 0 11 5 16 11 13 6 -4 8
-10 5 -13z m514 -9 c0 -8 -24 -29 -47 -41 -12 -7 -40 -13 -63 -14 -37 -3 -44
0 -51 20 -6 15 -5 21 1 17 6 -4 17 1 26 9 12 12 20 13 35 5 21 -11 59 -4 59
11 0 4 9 6 20 3 11 -3 20 -7 20 -10z m-170 -43 c0 -5 -2 -10 -4 -10 -3 0 -8 5
-11 10 -3 6 -1 10 4 10 6 0 11 -4 11 -10z m-135 -190 c3 -5 -1 -10 -10 -10 -9
0 -13 5 -10 10 3 6 8 10 10 10 2 0 7 -4 10 -10z m633 -257 c-10 -2 -18 -11
-18 -19 0 -8 -5 -14 -10 -14 -7 0 -7 6 0 20 6 11 18 19 28 19 16 -1 16 -2 0
-6z m23 -34 c-9 -23 -12 -23 -15 4 -2 11 15 29 21 23 2 -2 -1 -14 -6 -27z m51
-21 c-6 -6 -7 0 -4 19 5 21 7 23 10 9 2 -10 0 -22 -6 -28z m73 -98 c3 -5 -1
-10 -10 -10 -9 0 -13 5 -10 10 3 6 8 10 10 10 2 0 7 -4 10 -10z m-8 -112 c-3
-8 -6 -5 -6 6 -1 11 2 17 5 13 3 -3 4 -12 1 -19z m-752 -138 c3 -5 1 -10 -4
-10 -6 0 -11 5 -11 10 0 6 2 10 4 10 3 0 8 -4 11 -10z m12 -36 c-3 -3 -12 -4
-19 -1 -8 3 -5 6 6 6 11 1 17 -2 13 -5z m-3 -49 c3 -8 1 -15 -3 -15 -5 0 -11
7 -15 15 -3 8 -1 15 3 15 5 0 11 -7 15 -15z m241 -25 c3 -5 -1 -10 -10 -10 -9
0 -13 5 -10 10 3 6 8 10 10 10 2 0 7 -4 10 -10z"/>
<path d="M1475 2920 c4 -6 11 -8 16 -5 14 9 11 15 -7 15 -8 0 -12 -5 -9 -10z"/>
<path d="M2091 2814 c0 -11 3 -14 6 -6 3 7 2 16 -1 19 -3 4 -6 -2 -5 -13z"/>
<path d="M1315 2770 c-3 -5 -1 -10 4 -10 6 0 11 -7 11 -15 0 -8 5 -15 10 -15
15 0 12 19 -4 36 -9 9 -17 10 -21 4z"/>
<path d="M2330 2040 c0 -5 5 -10 10 -10 6 0 10 5 10 10 0 6 -4 10 -10 10 -5 0
-10 -4 -10 -10z"/>
<path d="M2315 1820 c-3 -5 -1 -10 4 -10 6 0 11 5 11 10 0 6 -2 10 -4 10 -3 0
-8 -4 -11 -10z"/>
<path d="M2557 1879 c-3 -11 -15 -23 -26 -26 -12 -3 -21 -9 -21 -14 0 -5 -6
-9 -14 -9 -8 0 -13 -10 -13 -25 0 -14 4 -25 9 -25 5 0 6 5 2 11 -4 8 0 9 15 4
15 -4 21 -2 21 8 0 8 9 24 20 37 11 13 20 31 20 42 0 24 -6 23 -13 -3z"/>
<path d="M2320 1001 c0 -5 5 -13 10 -16 6 -3 10 -2 10 4 0 5 -4 13 -10 16 -5
3 -10 2 -10 -4z"/>
<path d="M1865 610 c3 -5 8 -10 11 -10 2 0 4 5 4 10 0 6 -5 10 -11 10 -5 0 -7
-4 -4 -10z"/>
<path d="M1928 493 c7 -3 16 -2 19 1 4 3 -2 6 -13 5 -11 0 -14 -3 -6 -6z"/>
</g>
</svg>
